<svg width="108" height="27" viewBox="0 0 108 27" fill="none" xmlns="http://www.w3.org/2000/svg">
<path d="M0.396025 12.824C0.396025 11.3507 0.690692 10.0593 1.28002 8.95C1.88669 7.82333 2.71869 6.95667 3.77603 6.35C4.83336 5.74333 6.04669 5.44 7.41603 5.44C9.14936 5.44 10.5794 5.856 11.706 6.688C12.85 7.50267 13.6214 8.67267 14.02 10.198H10.822C10.562 9.48733 10.146 8.93267 9.57403 8.534C9.00203 8.13533 8.28269 7.936 7.41603 7.936C6.20269 7.936 5.23203 8.36933 4.50403 9.236C3.79336 10.0853 3.43803 11.2813 3.43803 12.824C3.43803 14.3667 3.79336 15.5713 4.50403 16.438C5.23203 17.3047 6.20269 17.738 7.41603 17.738C9.13203 17.738 10.2674 16.984 10.822 15.476H14.02C13.604 16.932 12.824 18.0933 11.68 18.96C10.536 19.8093 9.11469 20.234 7.41603 20.234C6.04669 20.234 4.83336 19.9307 3.77603 19.324C2.71869 18.7 1.88669 17.8333 1.28002 16.724C0.690692 15.5973 0.396025 14.2973 0.396025 12.824ZM23.8639 5.44C24.9559 5.44 25.9265 5.674 26.7759 6.142C27.6425 6.61 28.3185 7.30333 28.8039 8.222C29.3065 9.14067 29.5579 10.25 29.5579 11.55V20H26.6199V11.992C26.6199 10.7093 26.2992 9.73 25.6579 9.054C25.0165 8.36067 24.1412 8.014 23.0319 8.014C21.9225 8.014 21.0385 8.36067 20.3799 9.054C19.7385 9.73 19.4179 10.7093 19.4179 11.992V20H16.4539V0.76H19.4179V7.338C19.9205 6.73133 20.5532 6.26333 21.3159 5.934C22.0959 5.60467 22.9452 5.44 23.8639 5.44ZM31.8306 12.772C31.8306 11.3333 32.1253 10.0593 32.7146 8.95C33.3213 7.84067 34.136 6.98267 35.1586 6.376C36.1986 5.752 37.3426 5.44 38.5906 5.44C39.7173 5.44 40.6966 5.66533 41.5286 6.116C42.378 6.54933 43.054 7.09533 43.5566 7.754V5.674H46.5466V20H43.5566V17.868C43.054 18.544 42.3693 19.1073 41.5026 19.558C40.636 20.0087 39.648 20.234 38.5386 20.234C37.308 20.234 36.1813 19.922 35.1586 19.298C34.136 18.6567 33.3213 17.7727 32.7146 16.646C32.1253 15.502 31.8306 14.2107 31.8306 12.772ZM43.5566 12.824C43.5566 11.836 43.3486 10.978 42.9326 10.25C42.534 9.522 42.0053 8.96733 41.3466 8.586C40.688 8.20467 39.9773 8.014 39.2146 8.014C38.452 8.014 37.7413 8.20467 37.0826 8.586C36.424 8.95 35.8866 9.496 35.4706 10.224C35.072 10.9347 34.8726 11.784 34.8726 12.772C34.8726 13.76 35.072 14.6267 35.4706 15.372C35.8866 16.1173 36.424 16.6893 37.0826 17.088C37.7586 17.4693 38.4693 17.66 39.2146 17.66C39.9773 17.66 40.688 17.4693 41.3466 17.088C42.0053 16.7067 42.534 16.152 42.9326 15.424C43.3486 14.6787 43.5566 13.812 43.5566 12.824ZM53.3777 8.092V16.022C53.3777 16.5593 53.4991 16.9493 53.7417 17.192C54.0017 17.4173 54.4351 17.53 55.0417 17.53H56.8617V20H54.5217C53.1871 20 52.1644 19.688 51.4537 19.064C50.7431 18.44 50.3877 17.426 50.3877 16.022V8.092H48.6977V5.674H50.3877V2.112H53.3777V5.674H56.8617V8.092H53.3777ZM58.5276 12.928C58.5276 11.472 58.8136 10.198 59.3856 9.106C59.9749 8.014 60.7809 7.17333 61.8036 6.584C62.8436 5.99467 64.0222 5.7 65.3396 5.7C66.8302 5.7 68.0956 6.064 69.1356 6.792C70.1756 7.52 70.9036 8.44733 71.3196 9.574V5.882H72.4896V20H71.3196V16.282C70.9036 17.426 70.1669 18.3707 69.1096 19.116C68.0696 19.844 66.8129 20.208 65.3396 20.208C64.0222 20.208 62.8436 19.9133 61.8036 19.324C60.7809 18.7173 59.9749 17.868 59.3856 16.776C58.8136 15.6667 58.5276 14.384 58.5276 12.928ZM71.3196 12.928C71.3196 11.6973 71.0596 10.614 70.5396 9.678C70.0369 8.72467 69.3436 7.99667 68.4596 7.494C67.5756 6.974 66.5876 6.714 65.4956 6.714C64.3516 6.714 63.3462 6.96533 62.4796 7.468C61.6129 7.95333 60.9369 8.664 60.4516 9.6C59.9662 10.536 59.7236 11.6453 59.7236 12.928C59.7236 14.2107 59.9662 15.32 60.4516 16.256C60.9369 17.192 61.6129 17.9113 62.4796 18.414C63.3636 18.9167 64.3689 19.168 65.4956 19.168C66.5876 19.168 67.5756 18.9167 68.4596 18.414C69.3609 17.894 70.0629 17.166 70.5656 16.23C71.0682 15.2767 71.3196 14.176 71.3196 12.928ZM77.3997 9.6C77.7984 8.456 78.5177 7.52 79.5577 6.792C80.615 6.064 81.889 5.7 83.3797 5.7C84.697 5.7 85.867 5.99467 86.8897 6.584C87.9297 7.17333 88.7357 8.014 89.3077 9.106C89.897 10.198 90.1917 11.472 90.1917 12.928C90.1917 14.384 89.897 15.6667 89.3077 16.776C88.7357 17.868 87.9297 18.7173 86.8897 19.324C85.867 19.9133 84.697 20.208 83.3797 20.208C81.9064 20.208 80.641 19.844 79.5837 19.116C78.5437 18.3707 77.8157 17.4347 77.3997 16.308V26.656H76.2297V5.882H77.3997V9.6ZM88.9957 12.928C88.9957 11.6453 88.753 10.536 88.2677 9.6C87.7824 8.664 87.0977 7.95333 86.2137 7.468C85.347 6.96533 84.3417 6.714 83.1977 6.714C82.1057 6.714 81.1177 6.974 80.2337 7.494C79.3497 7.99667 78.6564 8.72467 78.1537 9.678C77.651 10.614 77.3997 11.6973 77.3997 12.928C77.3997 14.176 77.651 15.2767 78.1537 16.23C78.6564 17.166 79.3497 17.894 80.2337 18.414C81.1177 18.9167 82.1057 19.168 83.1977 19.168C84.3417 19.168 85.347 18.9167 86.2137 18.414C87.0977 17.9113 87.7824 17.192 88.2677 16.256C88.753 15.32 88.9957 14.2107 88.9957 12.928ZM94.3738 9.6C94.7725 8.456 95.4918 7.52 96.5318 6.792C97.5892 6.064 98.8632 5.7 100.354 5.7C101.671 5.7 102.841 5.99467 103.864 6.584C104.904 7.17333 105.71 8.014 106.282 9.106C106.871 10.198 107.166 11.472 107.166 12.928C107.166 14.384 106.871 15.6667 106.282 16.776C105.71 17.868 104.904 18.7173 103.864 19.324C102.841 19.9133 101.671 20.208 100.354 20.208C98.8805 20.208 97.6152 19.844 96.5578 19.116C95.5178 18.3707 94.7898 17.4347 94.3738 16.308V26.656H93.2038V5.882H94.3738V9.6ZM105.97 12.928C105.97 11.6453 105.727 10.536 105.242 9.6C104.757 8.664 104.072 7.95333 103.188 7.468C102.321 6.96533 101.316 6.714 100.172 6.714C99.0798 6.714 98.0918 6.974 97.2078 7.494C96.3238 7.99667 95.6305 8.72467 95.1278 9.678C94.6252 10.614 94.3738 11.6973 94.3738 12.928C94.3738 14.176 94.6252 15.2767 95.1278 16.23C95.6305 17.166 96.3238 17.894 97.2078 18.414C98.0918 18.9167 99.0798 19.168 100.172 19.168C101.316 19.168 102.321 18.9167 103.188 18.414C104.072 17.9113 104.757 17.192 105.242 16.256C105.727 15.32 105.97 14.2107 105.97 12.928Z" fill="white"/>
</svg>
